<svg width="282" height="206" viewBox="0 0 282 206" fill="none" xmlns="http://www.w3.org/2000/svg">
<g clip-path="url(#clip0_354_1771)">
<path d="M228.716 195.643C228.986 194.578 229.391 193.573 229.916 192.628C230.441 191.683 231.011 190.933 231.611 190.363C232.211 189.793 232.751 189.508 233.246 189.508C233.366 189.508 233.456 189.583 233.516 189.718C233.576 189.853 233.606 190.123 233.606 190.543C233.606 191.278 233.456 191.953 233.141 192.583C232.826 193.213 232.391 193.753 231.821 194.188C231.191 194.653 230.156 195.148 228.716 195.643ZM227.216 194.308C226.541 195.763 226.196 197.068 226.196 198.223C226.196 199.273 226.466 200.068 226.991 200.623C227.531 201.178 228.266 201.448 229.211 201.448C230.156 201.448 230.996 201.148 231.821 200.548C232.646 199.948 233.306 199.228 233.801 198.388L233.441 198.208C232.406 199.723 231.236 200.488 229.931 200.488C228.881 200.488 228.356 199.753 228.356 198.298C228.356 197.578 228.431 196.843 228.611 196.078C230.396 195.493 231.971 194.743 233.366 193.813C234.746 192.883 235.436 191.803 235.436 190.573C235.436 190.093 235.271 189.718 234.956 189.448C234.641 189.193 234.236 189.058 233.741 189.058C232.391 189.058 231.131 189.568 229.976 190.588C228.821 191.608 227.906 192.838 227.231 194.293M215.831 190.468C215.831 190.633 215.771 190.918 215.666 191.308L212.921 201.103H214.901L215.306 199.438C215.831 197.638 216.446 196.003 217.151 194.533C217.871 193.063 218.591 191.893 219.326 191.053C220.061 190.213 220.721 189.778 221.306 189.778C221.801 189.778 222.041 190.048 222.041 190.573C222.041 190.813 221.966 191.188 221.816 191.683L219.641 198.208C219.386 198.988 219.251 199.573 219.251 199.993C219.251 200.308 219.311 200.563 219.431 200.743C219.701 201.178 220.181 201.403 220.871 201.403C222.161 201.403 223.091 200.623 223.631 199.048L224.201 197.383H223.766L223.466 198.223C223.166 199.093 222.866 199.693 222.581 200.038C222.296 200.383 222.011 200.548 221.696 200.548C221.336 200.548 221.156 200.368 221.156 200.008C221.156 199.798 221.216 199.498 221.336 199.138L223.556 192.463C223.781 191.803 223.901 191.233 223.901 190.723C223.901 189.583 223.286 189.013 222.056 189.013C220.991 189.013 220.016 189.493 219.116 190.453C218.231 191.413 217.301 193.033 216.326 195.343L217.121 192.223C217.331 191.398 217.436 190.783 217.436 190.378C217.436 189.973 217.331 189.613 217.136 189.388C216.926 189.148 216.581 189.028 216.101 189.028C214.841 189.028 213.926 189.808 213.386 191.383L212.816 193.048H213.251L213.551 192.208C213.866 191.323 214.166 190.723 214.421 190.378C214.676 190.048 214.976 189.883 215.306 189.883C215.636 189.883 215.801 190.078 215.801 190.453M202.826 198.973C202.826 197.608 203.036 196.183 203.456 194.698C203.876 193.213 204.431 191.983 205.121 190.993C205.811 190.003 206.546 189.508 207.326 189.508C207.761 189.508 208.091 189.673 208.301 189.988C208.511 190.303 208.616 190.813 208.616 191.503C208.616 192.868 208.406 194.293 207.986 195.778C207.566 197.263 207.011 198.493 206.321 199.483C205.631 200.473 204.896 200.968 204.116 200.968C203.681 200.968 203.351 200.803 203.141 200.488C202.931 200.173 202.826 199.663 202.826 198.973ZM201.656 193.963C201.131 195.343 200.861 196.633 200.861 197.833C200.861 199.033 201.131 199.918 201.701 200.518C202.256 201.118 203.021 201.418 203.996 201.418C205.316 201.418 206.486 200.938 207.491 199.993C208.496 199.048 209.261 197.878 209.801 196.498C210.341 195.118 210.596 193.828 210.596 192.628C210.596 191.428 210.311 190.543 209.756 189.943C209.201 189.343 208.436 189.043 207.461 189.043C206.141 189.043 204.971 189.523 203.966 190.468C202.961 191.413 202.196 192.583 201.656 193.963ZM198.341 186.673C198.776 186.673 199.181 186.493 199.526 186.148C199.871 185.803 200.051 185.398 200.051 184.933C200.051 184.603 199.946 184.318 199.736 184.093C199.526 183.868 199.241 183.748 198.896 183.748C198.461 183.748 198.071 183.928 197.726 184.288C197.381 184.648 197.216 185.053 197.216 185.503C197.216 185.833 197.321 186.118 197.531 186.343C197.741 186.568 198.026 186.673 198.356 186.673M196.706 190.468C196.706 190.663 196.646 190.948 196.526 191.308L194.081 198.223C193.811 198.988 193.676 199.588 193.676 200.023C193.676 200.953 194.216 201.418 195.281 201.418C195.866 201.418 196.391 201.238 196.886 200.863C197.381 200.503 197.786 199.903 198.086 199.063L198.686 197.398H198.251L197.936 198.238C197.621 199.093 197.321 199.693 197.051 200.038C196.781 200.383 196.481 200.563 196.166 200.563C195.806 200.563 195.626 200.368 195.626 199.993C195.626 199.798 195.686 199.513 195.806 199.153L198.251 192.238C198.491 191.563 198.611 190.978 198.611 190.483C198.611 189.523 198.116 189.043 197.096 189.043C196.526 189.043 196.001 189.223 195.491 189.568C194.981 189.913 194.576 190.528 194.276 191.398L193.676 193.063H194.111L194.426 192.223C194.726 191.398 195.026 190.813 195.296 190.438C195.566 190.078 195.881 189.898 196.226 189.898C196.571 189.898 196.736 190.093 196.736 190.468M191.621 190.258L181.316 201.103H181.931C182.231 200.788 182.546 200.563 182.861 200.443C183.176 200.323 183.551 200.263 183.986 200.263C184.376 200.263 184.721 200.308 185.021 200.383C185.321 200.473 185.651 200.593 186.041 200.758C186.371 200.908 186.686 201.028 186.971 201.118C187.256 201.208 187.571 201.238 187.916 201.238C188.816 201.238 189.476 200.998 189.911 200.548C190.346 200.083 190.556 199.513 190.556 198.838C190.556 198.253 190.361 197.788 189.986 197.428C189.611 197.068 189.056 196.798 188.336 196.633L188.201 196.978C188.741 197.083 189.161 197.293 189.506 197.578C189.836 197.878 190.001 198.223 190.001 198.613C190.001 199.003 189.896 199.273 189.671 199.468C189.446 199.663 189.146 199.753 188.741 199.753C188.486 199.753 188.231 199.723 188.006 199.663C187.766 199.603 187.481 199.513 187.151 199.393C186.821 199.273 186.551 199.183 186.341 199.123C186.131 199.063 185.906 199.033 185.666 199.033C185.261 199.033 184.841 199.123 184.421 199.288C184.001 199.468 183.446 199.768 182.771 200.218L193.076 189.373H192.461C192.161 189.688 191.846 189.913 191.531 190.033C191.216 190.153 190.841 190.213 190.406 190.213C190.016 190.213 189.671 190.168 189.371 190.093C189.071 190.003 188.741 189.883 188.351 189.718C188.021 189.568 187.706 189.448 187.421 189.358C187.136 189.268 186.821 189.238 186.476 189.238C185.576 189.238 184.916 189.463 184.481 189.928C184.046 190.393 183.836 190.963 183.836 191.623C183.836 192.208 184.031 192.673 184.406 193.033C184.781 193.393 185.336 193.663 186.056 193.828L186.191 193.483C185.651 193.378 185.231 193.168 184.886 192.883C184.556 192.583 184.376 192.238 184.376 191.848C184.376 191.458 184.481 191.188 184.706 190.993C184.931 190.798 185.231 190.708 185.636 190.708C185.891 190.708 186.146 190.738 186.371 190.798C186.611 190.858 186.896 190.948 187.226 191.068C187.556 191.188 187.826 191.278 188.036 191.338C188.246 191.398 188.471 191.428 188.711 191.428C189.116 191.428 189.536 191.338 189.956 191.173C190.376 191.008 190.931 190.693 191.606 190.243M171.896 198.913C171.896 197.608 172.151 196.213 172.631 194.728C173.126 193.243 173.741 191.998 174.476 190.978C175.211 189.958 175.901 189.463 176.561 189.463C176.951 189.463 177.266 189.643 177.491 190.003C177.716 190.363 177.821 190.858 177.821 191.473C177.821 191.683 177.821 191.848 177.806 191.968L177.401 193.588C177.041 194.818 176.561 195.988 175.991 197.068C175.421 198.148 174.836 199.033 174.251 199.678C173.651 200.338 173.141 200.668 172.721 200.668C172.466 200.668 172.271 200.533 172.136 200.248C172.001 199.978 171.926 199.528 171.926 198.898M170.906 194.488C170.246 196.018 169.931 197.383 169.931 198.628C169.931 199.468 170.111 200.128 170.486 200.638C170.846 201.133 171.386 201.388 172.091 201.388C172.916 201.388 173.696 200.998 174.446 200.233C175.196 199.468 175.946 198.223 176.681 196.528L176.276 198.178C176.246 198.283 176.171 198.538 176.066 198.928C175.961 199.318 175.901 199.678 175.901 199.993C175.901 200.308 175.976 200.563 176.111 200.788C176.231 200.968 176.396 201.118 176.606 201.223C176.816 201.328 177.071 201.388 177.356 201.388C177.851 201.388 178.346 201.208 178.811 200.833C179.276 200.458 179.666 199.858 179.981 199.018L180.551 197.353H180.116L179.846 198.193C179.351 199.753 178.751 200.518 178.091 200.518C177.761 200.518 177.596 200.323 177.596 199.948C177.596 199.798 177.626 199.633 177.671 199.453C177.716 199.273 177.746 199.153 177.761 199.093L180.611 188.998C180.041 189.178 179.351 189.283 178.511 189.313L178.151 190.723C178.106 190.168 177.956 189.748 177.686 189.448C177.431 189.148 177.101 188.998 176.681 188.998C175.601 188.998 174.536 189.538 173.486 190.603C172.436 191.668 171.581 192.958 170.921 194.488M165.416 189.778L161.261 205.348C161.801 205.168 162.491 205.063 163.316 205.033L167.396 189.778H170.096L170.231 189.328H167.531V189.298L167.786 188.323C168.101 187.093 168.371 186.163 168.581 185.533C168.791 184.903 169.061 184.438 169.376 184.153C169.796 183.763 170.246 183.553 170.696 183.553C170.981 183.553 171.236 183.613 171.431 183.718C171.641 183.838 171.746 183.958 171.746 184.093C171.356 184.213 171.026 184.408 170.801 184.678C170.561 184.948 170.441 185.263 170.441 185.623C170.441 185.863 170.501 186.058 170.666 186.193C170.831 186.328 171.056 186.403 171.356 186.403C171.776 186.403 172.136 186.238 172.436 185.908C172.736 185.578 172.886 185.218 172.886 184.828C172.886 184.348 172.691 183.973 172.301 183.658C171.911 183.358 171.386 183.208 170.711 183.208C170.171 183.208 169.661 183.313 169.151 183.508C168.641 183.718 168.206 183.988 167.861 184.348C167.366 184.843 166.931 185.473 166.571 186.253C166.211 187.033 165.866 188.053 165.536 189.298V189.328H163.481L163.346 189.778H165.401H165.416ZM154.256 195.583C154.526 194.518 154.931 193.513 155.456 192.568C155.981 191.623 156.551 190.873 157.151 190.303C157.751 189.733 158.291 189.448 158.786 189.448C158.906 189.448 158.996 189.523 159.056 189.658C159.116 189.793 159.146 190.063 159.146 190.483C159.146 191.218 158.996 191.893 158.681 192.523C158.366 193.153 157.931 193.693 157.361 194.128C156.731 194.593 155.696 195.088 154.256 195.583ZM152.756 194.248C152.081 195.703 151.736 197.008 151.736 198.163C151.736 199.213 152.006 200.008 152.531 200.563C153.056 201.118 153.806 201.388 154.751 201.388C155.696 201.388 156.536 201.088 157.361 200.488C158.186 199.888 158.846 199.168 159.341 198.328L158.981 198.148C157.946 199.663 156.776 200.428 155.456 200.428C154.406 200.428 153.881 199.693 153.881 198.238C153.881 197.518 153.971 196.783 154.136 196.018C155.921 195.433 157.496 194.683 158.891 193.753C160.271 192.823 160.976 191.743 160.976 190.513C160.976 190.033 160.811 189.658 160.496 189.388C160.181 189.133 159.776 188.998 159.281 188.998C157.931 188.998 156.671 189.508 155.516 190.528C154.361 191.548 153.446 192.778 152.756 194.233M145.301 190.363C145.301 190.618 145.241 190.918 145.136 191.248L142.391 201.043H144.371L144.821 199.243C145.676 196.333 146.591 193.993 147.551 192.223C148.511 190.453 149.411 189.568 150.236 189.568C150.341 189.568 150.431 189.598 150.491 189.658C150.176 189.793 149.921 189.988 149.741 190.228C149.561 190.468 149.471 190.768 149.471 191.113C149.471 191.368 149.561 191.578 149.726 191.713C149.891 191.863 150.116 191.923 150.386 191.923C150.806 191.923 151.181 191.758 151.511 191.443C151.826 191.128 151.991 190.738 151.991 190.273C151.991 189.898 151.871 189.583 151.631 189.343C151.391 189.103 151.061 188.983 150.656 188.983C149.756 188.983 148.946 189.448 148.226 190.363C147.506 191.278 146.726 192.853 145.916 195.058L146.651 192.178C146.861 191.353 146.966 190.738 146.966 190.303C146.966 189.418 146.531 188.983 145.661 188.983C144.371 188.983 143.441 189.763 142.901 191.338L142.331 193.003H142.766L143.066 192.163C143.351 191.323 143.636 190.723 143.921 190.363C144.206 190.003 144.506 189.823 144.851 189.823C145.196 189.823 145.331 190.003 145.331 190.348M135.026 190.348C135.026 190.603 134.966 190.903 134.861 191.233L132.116 201.028H134.096L134.561 199.228C135.416 196.318 136.316 193.978 137.291 192.208C138.251 190.438 139.151 189.553 139.976 189.553C140.081 189.553 140.171 189.583 140.231 189.643C139.916 189.778 139.661 189.973 139.481 190.213C139.301 190.453 139.211 190.753 139.211 191.098C139.211 191.353 139.301 191.563 139.466 191.698C139.631 191.848 139.856 191.908 140.126 191.908C140.546 191.908 140.921 191.743 141.251 191.428C141.566 191.113 141.731 190.723 141.731 190.258C141.731 189.883 141.611 189.568 141.371 189.328C141.131 189.088 140.801 188.968 140.396 188.968C139.496 188.968 138.686 189.433 137.966 190.348C137.246 191.263 136.466 192.838 135.641 195.043L136.376 192.163C136.586 191.338 136.691 190.723 136.691 190.288C136.691 189.403 136.256 188.968 135.386 188.968C134.096 188.968 133.166 189.748 132.626 191.323L132.056 192.988H132.491L132.791 192.148C133.076 191.308 133.361 190.708 133.646 190.348C133.931 189.988 134.231 189.808 134.576 189.808C134.921 189.808 135.056 189.988 135.056 190.333M122.111 198.898C122.111 197.533 122.321 196.108 122.741 194.623C123.161 193.138 123.716 191.908 124.406 190.918C125.096 189.928 125.831 189.433 126.611 189.433C127.046 189.433 127.376 189.598 127.586 189.913C127.796 190.228 127.901 190.738 127.901 191.428C127.901 192.793 127.691 194.218 127.271 195.703C126.851 197.188 126.296 198.418 125.606 199.408C124.916 200.398 124.181 200.893 123.401 200.893C122.966 200.893 122.636 200.728 122.426 200.413C122.216 200.098 122.111 199.588 122.111 198.898ZM120.941 193.888C120.401 195.268 120.146 196.558 120.146 197.758C120.146 198.958 120.416 199.843 120.986 200.443C121.541 201.043 122.306 201.343 123.281 201.343C124.601 201.343 125.771 200.863 126.776 199.918C127.781 198.973 128.546 197.803 129.086 196.423C129.611 195.043 129.881 193.753 129.881 192.553C129.881 191.353 129.611 190.468 129.041 189.868C128.486 189.268 127.721 188.968 126.746 188.968C125.426 188.968 124.256 189.448 123.251 190.393C122.246 191.338 121.481 192.508 120.941 193.888ZM112.451 198.148C112.316 198.628 112.241 199.048 112.241 199.453C112.241 200.053 112.406 200.518 112.736 200.848C113.066 201.178 113.576 201.358 114.266 201.358C115.016 201.358 115.646 201.163 116.156 200.773C116.666 200.383 117.086 199.723 117.401 198.778L117.881 197.338H117.446L117.131 198.223C116.816 199.093 116.486 199.693 116.156 200.023C115.826 200.353 115.481 200.518 115.091 200.518C114.806 200.518 114.566 200.443 114.386 200.293C114.206 200.143 114.116 199.918 114.116 199.603C114.116 199.453 114.131 199.288 114.176 199.108L116.831 189.763H119.906L119.981 189.313H116.966L118.031 185.518C117.491 185.698 116.801 185.803 115.976 185.833L114.971 189.298H112.916L112.796 189.748H114.851L112.436 198.148H112.451ZM97.4956 195.553C97.7656 194.488 98.1706 193.483 98.6956 192.538C99.2206 191.593 99.7906 190.843 100.391 190.273C100.991 189.703 101.531 189.418 102.026 189.418C102.146 189.418 102.236 189.493 102.296 189.628C102.356 189.763 102.386 190.033 102.386 190.453C102.386 191.188 102.236 191.863 101.921 192.493C101.606 193.123 101.171 193.663 100.601 194.098C99.9706 194.563 98.9356 195.058 97.4956 195.553ZM95.9956 194.218C95.3206 195.673 94.9756 196.978 94.9756 198.133C94.9756 199.183 95.2456 199.978 95.7706 200.533C96.2956 201.088 97.0456 201.358 97.9906 201.358C98.9356 201.358 99.7756 201.058 100.601 200.458C101.426 199.858 102.086 199.138 102.581 198.298L102.221 198.118C101.186 199.633 100.016 200.398 98.6956 200.398C97.6456 200.398 97.1206 199.663 97.1206 198.208C97.1206 197.488 97.2106 196.753 97.3756 195.988C99.1606 195.403 100.736 194.653 102.131 193.723C103.511 192.793 104.216 191.713 104.216 190.483C104.216 190.003 104.051 189.628 103.736 189.358C103.421 189.103 103.016 188.968 102.521 188.968C101.171 188.968 99.9106 189.478 98.7556 190.498C97.6006 191.518 96.6856 192.748 95.9956 194.203M87.1306 195.538C87.4006 194.473 87.8056 193.468 88.3306 192.523C88.8556 191.578 89.4256 190.828 90.0256 190.258C90.6256 189.688 91.1656 189.403 91.6606 189.403C91.7806 189.403 91.8706 189.478 91.9306 189.613C91.9906 189.748 92.0206 190.018 92.0206 190.438C92.0206 191.173 91.8706 191.848 91.5556 192.478C91.2406 193.108 90.8056 193.648 90.2356 194.083C89.6056 194.548 88.5706 195.043 87.1306 195.538ZM85.6306 194.203C84.9556 195.658 84.6106 196.963 84.6106 198.118C84.6106 199.168 84.8806 199.963 85.4056 200.518C85.9306 201.073 86.6806 201.343 87.6256 201.343C88.5706 201.343 89.4106 201.043 90.2356 200.443C91.0606 199.843 91.7206 199.123 92.2156 198.283L91.8556 198.103C90.8206 199.618 89.6506 200.383 88.3306 200.383C87.2806 200.383 86.7556 199.648 86.7556 198.193C86.7556 197.473 86.8456 196.738 87.0106 195.973C88.7956 195.388 90.3706 194.638 91.7656 193.708C93.1456 192.778 93.8506 191.698 93.8506 190.468C93.8506 189.988 93.6856 189.613 93.3706 189.343C93.0556 189.088 92.6506 188.953 92.1556 188.953C90.8056 188.953 89.5456 189.463 88.3906 190.483C87.2356 191.503 86.3206 192.733 85.6306 194.188M80.0206 189.718L75.8656 205.288C76.4206 205.108 77.0956 205.003 77.9206 204.973L82.0156 189.718H84.7156L84.8506 189.268H82.1506V189.238L82.4056 188.263C82.7206 187.033 82.9906 186.103 83.2006 185.473C83.4106 184.843 83.6806 184.378 83.9956 184.093C84.4156 183.703 84.8656 183.493 85.3156 183.493C85.6006 183.493 85.8556 183.553 86.0656 183.658C86.2756 183.778 86.3656 183.898 86.3656 184.033C85.9756 184.153 85.6606 184.348 85.4206 184.618C85.1806 184.888 85.0606 185.203 85.0606 185.563C85.0456 185.803 85.1206 185.998 85.2856 186.133C85.4506 186.268 85.6756 186.343 85.9756 186.343C86.3956 186.343 86.7706 186.178 87.0556 185.848C87.3556 185.518 87.5056 185.158 87.5056 184.768C87.5056 184.288 87.3106 183.913 86.9206 183.598C86.5306 183.283 86.0056 183.148 85.3306 183.148C84.8056 183.148 84.2806 183.253 83.7706 183.448C83.2606 183.658 82.8256 183.928 82.4806 184.288C81.9856 184.783 81.5506 185.413 81.1906 186.193C80.8306 186.973 80.4856 187.993 80.1556 189.238V189.268H78.1006L77.9656 189.718H80.0206ZM72.1156 189.718L67.9606 205.288C68.5156 205.108 69.1906 205.003 70.0156 204.973L74.1106 189.718H76.8106L76.9456 189.268H74.2456V189.238L74.5006 188.263C74.8156 187.033 75.0856 186.103 75.2956 185.473C75.5056 184.843 75.7756 184.378 76.0906 184.093C76.5106 183.703 76.9606 183.493 77.4106 183.493C77.6956 183.493 77.9506 183.553 78.1456 183.658C78.3556 183.778 78.4606 183.898 78.4606 184.033C78.0706 184.153 77.7406 184.348 77.5156 184.618C77.2756 184.888 77.1556 185.203 77.1556 185.563C77.1556 185.803 77.2156 185.998 77.3806 186.133C77.5456 186.268 77.7706 186.343 78.0706 186.343C78.4906 186.343 78.8506 186.178 79.1506 185.848C79.4506 185.518 79.6006 185.158 79.6006 184.768C79.6006 184.288 79.4056 183.913 79.0156 183.598C78.6256 183.283 78.1006 183.148 77.4256 183.148C76.8856 183.148 76.3756 183.253 75.8656 183.448C75.3556 183.658 74.9206 183.928 74.5756 184.288C74.0806 184.783 73.6456 185.413 73.2856 186.193C72.9256 186.973 72.5806 187.993 72.2506 189.238V189.268H70.1956L70.0606 189.718H72.1156ZM59.2606 198.868C59.2606 197.503 59.4706 196.078 59.8906 194.593C60.3106 193.108 60.8656 191.878 61.5556 190.888C62.2456 189.898 62.9806 189.403 63.7606 189.403C64.1956 189.403 64.5256 189.568 64.7356 189.883C64.9456 190.198 65.0506 190.708 65.0506 191.398C65.0506 192.763 64.8406 194.188 64.4206 195.673C64.0006 197.158 63.4456 198.388 62.7556 199.378C62.0656 200.368 61.3306 200.863 60.5506 200.863C60.1156 200.863 59.7856 200.698 59.5756 200.383C59.3656 200.068 59.2606 199.558 59.2606 198.868ZM58.0906 193.858C57.5506 195.238 57.2956 196.528 57.2956 197.728C57.2956 198.928 57.5656 199.813 58.1356 200.413C58.6906 201.013 59.4556 201.313 60.4306 201.313C61.7506 201.313 62.9206 200.833 63.9256 199.888C64.9306 198.943 65.6956 197.773 66.2356 196.393C66.7756 195.013 67.0306 193.723 67.0306 192.523C67.0306 191.323 66.7606 190.438 66.2056 189.838C65.6506 189.238 64.8856 188.938 63.9106 188.938C62.5906 188.938 61.4206 189.418 60.4156 190.363C59.4106 191.308 58.6456 192.478 58.1056 193.858M47.6656 193.978C47.0806 195.388 46.7956 196.723 46.7956 197.953C46.7956 199.048 47.0656 199.888 47.6056 200.458C48.1456 201.028 48.8806 201.313 49.8106 201.313C50.7406 201.313 51.5956 201.013 52.4206 200.413C53.2456 199.813 53.9056 199.093 54.4006 198.253L53.9506 198.073C52.9156 199.588 51.7756 200.353 50.5306 200.353C50.0206 200.353 49.6306 200.173 49.3606 199.813C49.0756 199.453 48.9406 198.898 48.9406 198.163C48.9406 196.678 49.1806 195.253 49.6606 193.888C50.1406 192.538 50.7556 191.443 51.5056 190.618C52.2556 189.793 53.0206 189.388 53.7706 189.388C54.4906 189.388 55.0006 189.628 55.3306 190.093C54.8506 190.183 54.4606 190.393 54.1156 190.693C53.7856 191.008 53.6206 191.383 53.6206 191.803C53.6206 192.058 53.6956 192.283 53.8606 192.448C54.0256 192.613 54.2506 192.703 54.5506 192.703C55.0306 192.703 55.4056 192.523 55.7206 192.148C56.0206 191.773 56.1706 191.353 56.1706 190.888C56.1706 190.288 55.9306 189.823 55.4656 189.478C55.0006 189.133 54.4156 188.953 53.7106 188.953C52.3756 188.953 51.1756 189.448 50.1256 190.408C49.0756 191.383 48.2656 192.583 47.6806 193.993M38.7406 104.503L40.0456 91.4077C37.0006 89.8027 33.3406 88.7977 29.0656 89.0227C28.0606 89.0677 27.0106 89.1877 25.9456 89.3827C25.8556 89.3977 25.7656 89.4127 25.6756 89.4277C13.0756 91.8727 9.67062 99.8077 8.74062 103.948C8.39562 105.508 8.39562 106.528 8.39562 106.528C7.85562 113.158 7.42062 116.833 1.01562 117.913V122.098L7.96062 121.573V154.543C7.96062 161.488 7.96062 164.863 1.55562 165.733V167.248H29.2306V165.733C21.7306 165.403 21.7306 161.608 21.7306 154.543V120.733L29.5156 120.148C29.5156 120.148 29.5906 120.148 29.6206 120.148C31.6606 120.013 33.3106 121.753 33.1156 123.778L34.0906 123.718L34.2556 122.098L35.1406 113.218L29.2306 113.623L21.7306 114.133V106.963C21.7306 105.478 21.7306 102.238 22.9906 99.4927C24.1306 97.0027 26.2906 94.9027 30.4306 94.9027C30.8806 94.9027 31.4506 94.9627 32.0806 95.1427C34.3756 95.7877 37.3456 97.9927 37.0906 104.638L38.6056 104.488L38.7406 104.503ZM72.1156 136.198C72.1156 142.933 71.9056 148.903 69.6106 153.148C67.1056 157.603 61.9006 160.648 56.8006 160.648C51.3706 160.648 48.6556 156.523 48.6556 153.148C48.6556 146.848 54.2956 139.783 72.1156 136.198ZM86.3506 152.818L86.4106 129.163C86.4106 119.608 84.7756 111.238 66.7456 111.238C65.5456 111.238 64.3756 111.283 63.2056 111.358L40.6006 112.888L38.7256 131.803L39.8506 131.683C41.5906 127.768 46.0156 118.078 61.2256 118.078C63.6106 118.078 68.6056 118.408 70.9006 122.098C71.9806 124.048 71.9356 126.313 71.9356 131.098C53.9056 134.473 33.9106 139.783 33.9106 154.993C33.9106 162.598 40.0006 168.463 51.0706 168.463C55.9606 168.463 61.9306 167.263 66.8206 164.113C69.5356 162.268 70.8406 160.423 72.4756 158.143C73.1206 162.493 73.7806 164.008 76.2706 167.263H93.6556V165.748C88.5556 164.548 86.3806 162.268 86.3806 152.818M110.141 112.753L89.7256 114.148V115.663C96.1306 116.533 96.1306 120.013 96.1306 126.853V153.028C96.1306 161.068 99.8206 168.448 109.931 168.448C116.666 168.448 124.166 165.088 133.061 156.493C133.391 161.713 133.721 163.438 135.011 167.248H153.701V165.613C147.506 165.073 146.966 161.698 146.966 152.248V112.708L126.221 114.118V115.633C133.061 116.278 133.061 119.863 133.061 126.823V137.038C133.061 143.008 132.416 146.923 130.241 151.273C128.066 155.623 122.426 159.418 117.641 159.418C115.256 159.418 112.751 158.008 111.446 155.938C110.141 153.763 110.141 149.308 110.141 147.463V112.723V112.753ZM176.576 70.8277C176.336 70.6177 176.051 70.3777 175.736 70.1677C175.586 70.0627 175.421 70.0027 175.241 69.9127C175.211 69.8977 175.196 69.8827 175.166 69.8677C175.136 69.8377 175.121 69.7927 175.091 69.7627C174.926 69.5077 174.791 69.2677 174.626 69.0427C174.086 68.3377 173.591 67.8577 173.591 67.8577L173.471 67.9777C173.471 67.2277 173.471 65.0527 173.471 61.9027C173.471 57.6577 173.501 51.7027 173.546 45.2077C173.696 44.7277 173.786 44.2327 173.771 43.7227C173.771 43.3177 173.681 42.9127 173.561 42.5227C173.561 40.4527 173.591 38.3527 173.591 36.2527L173.651 36.1927L173.591 36.1327C173.591 34.0927 173.606 32.0527 173.621 30.0577C173.711 29.7277 173.771 29.3977 173.771 29.0527C173.771 28.6627 173.726 28.2877 173.636 27.8977C173.636 25.7377 173.651 23.6377 173.666 21.6277C173.696 13.0177 173.696 6.23768 173.696 4.69268C173.861 4.52768 174.251 4.12268 174.641 3.59768C174.806 3.37268 174.941 3.11768 175.106 2.87768C175.136 2.84768 175.151 2.80268 175.181 2.77268C175.211 2.75768 175.226 2.74268 175.256 2.72768C175.421 2.63768 175.586 2.57768 175.751 2.47268C175.976 2.32268 176.186 2.15768 176.381 1.99268C176.381 4.76768 176.381 11.5627 176.411 19.9177C176.456 34.7677 176.591 54.4777 176.591 64.8727C176.591 67.5877 176.591 69.6577 176.591 70.8577M175.556 1.18268C175.391 1.37768 175.241 1.58768 175.076 1.81268C174.971 1.96268 174.911 2.12768 174.821 2.30768C174.806 2.33768 174.791 2.36768 174.776 2.38268C174.746 2.41268 174.716 2.42768 174.671 2.45768C174.416 2.62268 174.176 2.75768 173.951 2.92268C173.426 3.31268 173.036 3.70268 172.856 3.86768L149.096 3.83768C148.931 3.82268 148.751 3.79268 148.586 3.79268C148.481 3.79268 148.391 3.82268 148.286 3.82268H134.051C134.051 3.82268 133.946 3.79268 133.901 3.79268C133.826 3.79268 133.736 3.80768 133.661 3.80768L109.496 3.77768C109.301 3.58268 108.956 3.26768 108.491 2.90768C108.266 2.74268 108.011 2.60768 107.771 2.44268C107.741 2.41268 107.696 2.39768 107.666 2.36768C107.651 2.35268 107.636 2.32268 107.621 2.29268C107.531 2.12768 107.471 1.96268 107.366 1.79768C107.231 1.60268 107.096 1.42268 106.946 1.25768L175.541 1.18268H175.556ZM106.691 2.48768C106.841 2.59268 107.006 2.65268 107.186 2.74268C107.216 2.75768 107.246 2.77268 107.261 2.78768C107.291 2.81768 107.306 2.84768 107.336 2.89268C107.501 3.14768 107.636 3.38768 107.801 3.61268C108.146 4.07768 108.476 4.42268 108.671 4.61768L108.731 67.9777C108.551 68.1577 108.191 68.5477 107.801 69.0577C107.636 69.2827 107.501 69.5377 107.336 69.7777C107.306 69.8077 107.291 69.8527 107.261 69.8827C107.246 69.8977 107.216 69.9127 107.186 69.9277C107.021 70.0177 106.856 70.0777 106.691 70.1827C106.466 70.3327 106.271 70.4977 106.076 70.6477L106.136 2.05268C106.301 2.18768 106.481 2.33768 106.676 2.47268M172.796 46.5727C172.826 52.5277 172.856 57.9577 172.856 61.9027C172.856 65.0227 172.856 67.1977 172.856 67.9777C171.101 67.9627 162.161 67.8877 151.496 67.8277C151.586 67.7527 151.676 67.7077 151.766 67.6177L151.796 67.6477C151.796 67.6477 154.556 64.9327 157.946 61.3627C158.981 60.2827 160.031 59.0977 161.141 57.9277C161.306 57.7627 161.456 57.5827 161.621 57.4177C161.726 57.3127 161.846 57.2077 161.966 57.1027C162.701 56.4427 163.451 55.8127 164.156 55.1527C168.716 50.9077 172.541 46.9627 172.541 46.9627L172.511 46.9327C172.616 46.8277 172.691 46.7077 172.781 46.5877M172.721 37.0477C172.721 38.3827 172.736 39.7177 172.751 41.0527C172.631 40.9027 172.511 40.7377 172.361 40.6027L171.716 39.9877C171.716 39.9877 171.176 39.4627 170.801 39.1027C171.356 38.5027 172.136 37.6627 172.706 37.0927C172.706 37.0927 172.721 37.0777 172.736 37.0627M172.706 31.8127C172.706 32.9377 172.706 34.0777 172.721 35.2177C172.451 34.9177 172.136 34.5727 171.806 34.2277C171.551 33.9577 171.296 33.7027 171.056 33.4627L171.716 32.8177L172.361 32.2027C172.496 32.0827 172.586 31.9327 172.706 31.7977M151.481 4.99268C161.681 4.99268 170.321 4.96268 172.481 4.96268C172.481 6.82268 172.481 13.4227 172.511 21.7027C172.511 23.1277 172.511 24.6127 172.526 26.1277C172.466 26.0527 172.421 25.9777 172.361 25.9177L172.391 25.8877C172.391 25.8877 169.661 23.1277 166.091 19.7227C165.011 18.6877 163.826 17.6227 162.641 16.5277C162.476 16.3627 162.296 16.2127 162.131 16.0477C162.026 15.9277 161.921 15.8227 161.816 15.7027C161.156 14.9677 160.526 14.2177 159.866 13.4977C155.606 8.92268 151.661 5.08268 151.661 5.08268L151.631 5.11268C151.586 5.08268 151.541 5.05268 151.511 5.02268M142.151 5.02268C143.291 5.02268 144.431 5.02268 145.571 5.02268C145.481 5.09768 145.376 5.17268 145.286 5.26268L144.671 5.90768C144.671 5.90768 144.251 6.37268 143.951 6.71768C143.396 6.20768 142.691 5.53268 142.151 5.02268ZM141.116 5.02268H141.311C141.311 5.02268 141.341 5.05268 141.356 5.06768C141.431 5.14268 141.521 5.24768 141.611 5.35268C142.526 6.37268 144.101 8.18768 144.101 8.18768C144.896 9.05768 145.256 10.1827 145.211 11.2777C145.166 12.2977 144.761 13.2877 143.996 14.0527C143.786 13.8577 143.591 13.6627 143.396 13.4677C142.346 12.4477 141.386 11.5627 141.386 11.5627L141.086 11.8477L140.786 11.5627C140.786 11.5627 139.841 12.4477 138.776 13.4827C138.611 13.6477 138.431 13.8127 138.251 13.9927C137.546 13.2277 137.156 12.2677 137.111 11.2927C137.066 10.1977 137.441 9.08768 138.236 8.21768C138.281 8.17268 139.091 7.34768 139.841 6.49268C140.336 5.93768 140.801 5.38268 141.086 5.03768M136.601 5.03768C137.726 5.03768 138.866 5.03768 140.006 5.03768C139.751 5.27768 139.451 5.54768 139.151 5.81768C138.821 6.13268 138.506 6.44768 138.236 6.71768L137.471 5.90768L136.856 5.26268C136.766 5.17268 136.676 5.11268 136.586 5.03768M109.646 26.0677V5.03768C109.646 5.03768 119.051 5.03768 130.601 5.00768C130.571 5.03768 130.541 5.05268 130.511 5.08268L130.481 5.05268C130.481 5.05268 127.721 7.78268 124.331 11.3677C123.296 12.4627 122.246 13.6477 121.136 14.8327C120.971 14.9977 120.821 15.1777 120.656 15.3427C120.551 15.4477 120.431 15.5527 120.311 15.6577C119.576 16.3177 118.826 16.9627 118.121 17.6227C113.561 21.8977 109.736 25.8577 109.736 25.8577V25.8877C109.706 25.9327 109.676 25.9777 109.646 26.0077M109.646 35.1427V31.9327C109.736 32.0377 109.811 32.1427 109.901 32.2327L110.546 32.8477C110.546 32.8477 110.936 33.1927 111.221 33.4477C110.711 33.9877 110.111 34.6327 109.631 35.1277M109.631 36.1027V35.9677C109.631 35.9677 109.676 35.9227 109.706 35.8927C109.781 35.8177 109.886 35.7277 109.991 35.6377C111.011 34.7227 112.826 33.1477 112.826 33.1477C113.696 32.3527 114.821 31.9777 115.931 32.0377C116.996 32.0827 118.046 32.5327 118.841 33.3577C118.601 33.6127 118.346 33.8527 118.121 34.1077C117.101 35.1577 116.201 36.1027 116.201 36.1027L116.486 36.4027L116.201 36.7027C116.201 36.7027 117.086 37.6477 118.121 38.7127C118.241 38.8327 118.376 38.9677 118.496 39.1027C117.761 39.7327 116.861 40.0777 115.931 40.1077C114.836 40.1527 113.726 39.7777 112.856 38.9827C112.811 38.9377 111.986 38.1277 111.131 37.3777C110.561 36.8677 109.991 36.3877 109.646 36.1027M109.646 40.9177V37.1677C109.901 37.4377 110.186 37.7527 110.471 38.0527C110.831 38.4277 111.206 38.8027 111.506 39.1027L110.561 39.9877L109.916 40.6027C109.811 40.6927 109.736 40.8127 109.646 40.9177ZM130.706 67.7977C120.461 67.7827 111.806 67.7827 109.616 67.7977V46.8127C109.616 46.8127 109.706 46.9177 109.766 46.9627L109.736 46.9927C109.736 46.9927 112.466 49.7377 116.036 53.1277C117.116 54.1477 118.301 55.2127 119.486 56.3077C119.666 56.4727 119.831 56.6227 119.996 56.7877C120.101 56.8927 120.206 57.0127 120.311 57.1327C120.971 57.8677 121.601 58.6177 122.261 59.3227C126.521 63.8677 130.466 67.6927 130.466 67.6927L130.496 67.6627C130.556 67.7227 130.616 67.7527 130.676 67.7977M140.081 67.8127C138.881 67.8127 137.681 67.8127 136.481 67.8127C136.601 67.7077 136.736 67.6177 136.841 67.4977L137.456 66.8527C137.456 66.8527 137.876 66.3877 138.191 66.0427C138.776 66.5827 139.526 67.3027 140.081 67.8277M140.951 67.8277H140.921C140.921 67.8277 140.831 67.7527 140.786 67.6927C140.711 67.6177 140.621 67.5127 140.531 67.4077C139.616 66.3877 138.041 64.5727 138.041 64.5727C137.246 63.7027 136.886 62.5777 136.931 61.4827C136.976 60.4777 137.381 59.4877 138.131 58.7077C138.326 58.9027 138.536 59.0977 138.731 59.2927C139.781 60.3127 140.741 61.1977 140.741 61.1977L141.041 60.9127L141.341 61.1977C141.341 61.1977 142.286 60.3127 143.351 59.2777C143.531 59.1127 143.711 58.9327 143.876 58.7677C144.581 59.5327 144.971 60.4927 145.016 61.4677C145.061 62.5627 144.686 63.6727 143.891 64.5427C143.846 64.5877 143.036 65.4127 142.286 66.2677C141.746 66.8677 141.236 67.4827 140.966 67.8127M145.646 67.8277C144.446 67.8277 143.231 67.8277 142.016 67.8277C142.301 67.5727 142.646 67.2577 142.976 66.9427C143.306 66.6277 143.636 66.2977 143.906 66.0277L144.626 66.8527L145.256 67.4977C145.376 67.6327 145.511 67.7227 145.646 67.8277ZM169.811 39.9577L170.741 40.8427L171.386 41.4577C172.046 42.0877 172.406 42.9277 172.436 43.7677C172.466 44.6077 172.166 45.4627 171.551 46.1377H171.536C171.536 46.1377 171.371 46.2727 171.101 46.5427C170.546 46.9627 169.886 47.1877 169.226 47.2027C168.371 47.2327 167.501 46.9327 166.826 46.3027L161.486 41.2927C161.786 40.9927 162.251 40.5277 162.746 40.0177C163.736 40.8727 164.951 41.3527 166.181 41.3677C167.486 41.3827 168.791 40.9177 169.826 39.9727M171.011 34.9327C171.611 35.4727 172.241 35.9827 172.571 36.2677C172.526 36.3127 172.481 36.3577 172.421 36.4177C172.346 36.4927 172.241 36.5827 172.136 36.6727C171.116 37.5877 169.301 39.1627 169.301 39.1627C168.431 39.9577 167.306 40.3177 166.211 40.2727C165.251 40.2277 164.321 39.8527 163.571 39.1927C163.721 39.0427 163.871 38.8777 164.021 38.7277C165.041 37.6627 165.926 36.7177 165.926 36.7177L165.641 36.4177L165.926 36.1177C165.926 36.1177 165.041 35.1727 164.021 34.1077C163.811 33.8827 163.586 33.6727 163.376 33.4477C164.156 32.6527 165.176 32.2327 166.211 32.1877C167.306 32.1427 168.416 32.5177 169.286 33.3127C169.331 33.3577 170.156 34.1677 171.011 34.9177M171.191 26.3377C171.401 26.5477 171.536 26.6827 171.536 26.6827H171.551C172.181 27.3277 172.466 28.1827 172.436 29.0377C172.406 29.8927 172.061 30.7177 171.386 31.3477L170.741 31.9627C170.741 31.9627 170.351 32.3377 170.051 32.6227C170.021 32.5927 169.991 32.5627 169.991 32.5627C168.926 31.5277 167.546 31.0327 166.166 31.0477C164.846 31.0627 163.541 31.5877 162.521 32.5777C162.101 32.1577 161.726 31.7677 161.471 31.5127L166.811 26.5027C167.486 25.8727 168.356 25.5727 169.211 25.6027C169.916 25.6327 170.606 25.8877 171.176 26.3377M139.436 16.9027C139.436 16.3627 139.481 15.8227 139.601 15.2977C139.841 14.2627 140.336 13.2727 141.056 12.4177C141.776 13.2727 142.271 14.2627 142.511 15.2977C142.631 15.8227 142.691 16.3627 142.676 16.9027C142.646 18.4327 142.076 19.9327 141.056 21.1777C140.036 19.9327 139.466 18.4327 139.436 16.9027ZM117.131 36.4177C117.986 35.6977 118.976 35.1877 120.011 34.9627C120.536 34.8427 121.076 34.7827 121.616 34.7977C123.146 34.8277 124.646 35.3977 125.891 36.4177C124.646 37.4377 123.146 38.0227 121.616 38.0377C120.896 38.0377 120.191 37.9477 119.501 37.7227C118.646 37.4677 117.851 37.0177 117.131 36.4177ZM130.631 36.6577C130.631 36.7777 130.646 36.8977 130.661 37.0027C130.661 37.0477 130.661 37.0777 130.661 37.1227C130.736 38.1877 130.976 39.2527 131.351 40.2727C131.126 40.0627 130.886 39.8377 130.646 39.6277C129.131 38.2177 127.601 36.8377 127.121 36.4027C127.601 35.9677 129.116 34.5877 130.646 33.1777C130.856 32.9827 131.081 32.7877 131.291 32.5777C130.946 33.5377 130.721 34.5277 130.661 35.5477C130.661 35.5927 130.661 35.6227 130.661 35.6677C130.661 35.7877 130.646 35.9077 130.631 36.0277C130.631 36.1327 130.631 36.2377 130.631 36.3427C130.631 36.4477 130.631 36.5527 130.631 36.6577ZM142.676 55.7827C142.676 56.3227 142.631 56.8627 142.511 57.3877C142.271 58.4227 141.776 59.3977 141.056 60.2677C140.336 59.3977 139.841 58.4227 139.601 57.3877C139.481 56.8627 139.421 56.3227 139.436 55.7827C139.466 54.2527 140.036 52.7527 141.056 51.5077C142.076 52.7527 142.646 54.2527 142.676 55.7827ZM140.321 46.7977C140.456 46.7977 140.591 46.8277 140.726 46.8277C140.831 46.8277 140.936 46.8277 141.041 46.8277C141.146 46.8277 141.251 46.8277 141.356 46.8277C141.476 46.8277 141.596 46.8127 141.701 46.7977C141.746 46.7977 141.776 46.7977 141.821 46.7977C142.826 46.7377 143.816 46.5277 144.776 46.1827C144.611 46.3627 144.431 46.5427 144.266 46.7377C142.856 48.2677 141.476 49.7827 141.041 50.2627C140.606 49.7827 139.226 48.2677 137.816 46.7377C137.651 46.5577 137.471 46.3627 137.306 46.1827C138.281 46.5277 139.286 46.7377 140.306 46.7977M141.851 26.0227C141.851 26.0227 141.806 26.0227 141.791 26.0227C141.641 26.0227 141.506 25.9927 141.371 25.9927C141.251 25.9927 141.146 25.9927 141.041 25.9927C140.936 25.9927 140.846 25.9927 140.741 25.9927C140.621 25.9927 140.486 26.0077 140.366 26.0227C140.351 26.0227 140.321 26.0227 140.306 26.0227C139.226 26.0977 138.161 26.3227 137.156 26.6977C137.381 26.4577 137.606 26.2027 137.846 25.9477C139.256 24.4177 140.636 22.9027 141.071 22.4227C141.506 22.9027 142.886 24.4177 144.296 25.9477C144.521 26.2027 144.761 26.4427 144.986 26.6977C143.981 26.3227 142.931 26.0977 141.881 26.0227M147.776 29.8327C149.156 31.3477 150.011 33.1627 150.266 35.0827C150.266 35.1277 150.266 35.1877 150.281 35.2327C150.311 35.4577 150.326 35.6827 150.341 35.9227C150.341 36.0727 150.341 36.2077 150.341 36.3427C150.341 36.4777 150.341 36.6277 150.341 36.7627C150.341 36.9877 150.311 37.2277 150.281 37.4527C150.281 37.4977 150.281 37.5577 150.266 37.6027C149.981 39.7477 148.976 41.8327 147.281 43.4227C145.826 44.6377 144.101 45.3727 142.301 45.5977C142.271 45.5977 142.256 45.5977 142.226 45.5977C141.971 45.6277 141.716 45.6427 141.461 45.6577C141.341 45.6577 141.221 45.6577 141.101 45.6577C140.966 45.6577 140.831 45.6577 140.696 45.6577C138.611 45.5677 136.556 44.8177 134.861 43.4227C133.151 41.8177 132.161 39.7477 131.876 37.6027C131.876 37.5577 131.876 37.4977 131.861 37.4527C131.831 37.2277 131.816 36.9877 131.801 36.7627C131.801 36.6277 131.801 36.4777 131.801 36.3427C131.801 36.2077 131.801 36.0577 131.801 35.9227C131.801 35.6977 131.831 35.4577 131.861 35.2327C131.861 35.1877 131.861 35.1277 131.876 35.0827C132.131 33.2227 132.941 31.4377 134.261 29.9377C135.836 28.3927 137.801 27.4777 139.841 27.2077C139.901 27.2077 139.961 27.2077 140.006 27.1927C140.216 27.1627 140.426 27.1477 140.636 27.1477C140.786 27.1477 140.936 27.1477 141.086 27.1477C141.206 27.1477 141.341 27.1477 141.476 27.1477C141.716 27.1477 141.956 27.1777 142.181 27.2077C142.226 27.2077 142.271 27.2077 142.316 27.2227C144.311 27.4777 146.216 28.3627 147.761 29.8477M151.481 36.0577C151.481 35.9377 151.466 35.8177 151.451 35.7127C151.451 35.6677 151.451 35.6377 151.451 35.5927C151.391 34.5877 151.181 33.6127 150.851 32.6527C151.046 32.8327 151.256 33.0277 151.451 33.2227C152.981 34.6327 154.496 36.0127 154.976 36.4477C154.496 36.8827 152.981 38.2627 151.451 39.6727C151.226 39.8827 150.986 40.0927 150.761 40.3177C151.136 39.2977 151.376 38.2477 151.451 37.1827C151.451 37.1377 151.451 37.1077 151.451 37.0627C151.451 36.9427 151.481 36.8227 151.481 36.7177C151.481 36.6127 151.481 36.5077 151.481 36.4027C151.481 36.2977 151.481 36.1927 151.481 36.0877M162.101 37.9177C161.576 38.0377 161.036 38.0977 160.496 38.0827C158.966 38.0527 157.466 37.4677 156.221 36.4627C157.466 35.4427 158.966 34.8727 160.496 34.8427C161.036 34.8427 161.576 34.8877 162.101 35.0077C163.136 35.2477 164.111 35.7427 164.981 36.4627C164.111 37.1827 163.136 37.6777 162.101 37.9177ZM143.291 55.8277C143.276 54.1027 142.691 52.3927 141.581 50.9527C141.941 50.5927 143.486 49.0327 145.001 47.4577C146.021 46.4077 147.011 45.3877 147.671 44.6977C147.821 44.5927 147.971 44.4727 148.106 44.3677C148.106 44.3677 148.121 44.3527 148.136 44.3377C148.451 44.0827 148.751 43.7977 149.036 43.4977L148.976 43.4377C149.621 42.8227 150.866 41.6227 152.141 40.3927C153.716 38.8627 155.261 37.3327 155.636 36.9727C157.076 38.0977 158.786 38.6827 160.511 38.6977C161.096 38.6977 161.681 38.6527 162.251 38.5327C162.551 38.4727 162.836 38.3977 163.136 38.3077C161.816 39.5977 160.406 40.9927 160.406 41.0077L160.331 40.9327C160.331 40.9327 158.366 42.8527 155.966 45.4177C155.246 46.1977 154.511 47.0527 153.731 47.9077C153.611 48.0277 153.506 48.1627 153.386 48.2677C153.311 48.3427 153.221 48.4177 153.131 48.4927C152.606 48.9577 152.051 49.3777 151.541 49.8427C148.256 52.8277 145.541 55.6327 145.541 55.6327L145.616 55.7077C145.616 55.7077 144.206 57.1177 142.916 58.4377C143.006 58.1527 143.081 57.8527 143.141 57.5677C143.246 56.9977 143.306 56.4127 143.306 55.8277M119.021 38.3077C119.306 38.3977 119.606 38.4727 119.906 38.5327C120.476 38.6527 121.061 38.6977 121.646 38.6977C123.371 38.6977 125.096 38.0977 126.521 36.9727C126.881 37.3327 128.441 38.8777 130.016 40.3927C131.276 41.6227 132.536 42.8227 133.181 43.4377L133.121 43.4977C133.406 43.7977 133.706 44.0677 134.021 44.3377C134.021 44.3377 134.036 44.3527 134.051 44.3677C134.201 44.4877 134.336 44.5927 134.486 44.6977C135.146 45.3877 136.136 46.4077 137.156 47.4577C138.686 49.0327 140.216 50.5927 140.576 50.9527C139.451 52.3927 138.866 54.1027 138.866 55.8277C138.866 56.4127 138.911 56.9977 139.031 57.5677C139.091 57.8677 139.166 58.1527 139.241 58.4377C137.951 57.1177 136.541 55.7077 136.541 55.7077L136.616 55.6327C136.616 55.6327 134.681 53.6827 132.116 51.2977C131.336 50.5777 130.466 49.8427 129.626 49.0777C129.506 48.9727 129.371 48.8527 129.251 48.7327C129.176 48.6577 129.101 48.5677 129.026 48.4777C128.561 47.9527 128.126 47.3977 127.661 46.8877C124.676 43.6177 121.841 40.9177 121.841 40.9177L121.766 40.9927C121.766 40.9927 120.356 39.5827 119.036 38.2927M110.996 46.5427C110.771 46.3177 110.621 46.1677 110.621 46.1677H110.591C109.976 45.5227 109.676 44.6677 109.706 43.8127C109.736 42.9577 110.081 42.1327 110.756 41.5027L111.401 40.8877C111.401 40.8877 112.016 40.3177 112.406 39.9577C113.441 40.8427 114.716 41.2927 115.991 41.2777C117.191 41.2627 118.376 40.8127 119.351 39.9877C119.876 40.5277 120.371 41.0227 120.686 41.3377L115.346 46.3477C114.671 46.9777 113.801 47.2777 112.946 47.2477C112.256 47.2177 111.581 46.9777 111.011 46.5277M129.176 64.5577C129.176 64.5577 129.176 64.6177 129.176 64.6327C127.631 63.0877 125.411 60.9277 122.981 58.6627C122.276 58.0027 121.526 57.3727 120.791 56.7127C120.671 56.6077 120.551 56.5027 120.446 56.3977C120.281 56.2327 120.131 56.0527 119.966 55.8877C118.871 54.7177 117.806 53.5327 116.771 52.4527C115.256 50.8627 113.876 49.4527 112.811 48.3577C112.841 48.3577 112.886 48.3577 112.916 48.3577C114.056 48.3877 115.211 47.9827 116.096 47.1277C116.096 47.1277 119.696 43.6927 121.331 42.1177C122.141 42.9427 124.376 45.1927 126.986 47.5627C127.496 48.0277 128.051 48.4627 128.576 48.9127C128.666 48.9877 128.741 49.0627 128.831 49.1377C128.951 49.2577 129.056 49.3777 129.176 49.5127C129.956 50.3677 130.691 51.2227 131.411 52.0027C133.196 53.9227 134.756 55.4827 135.416 56.1427L130.406 61.3777C129.551 62.2627 129.146 63.4177 129.176 64.5577ZM112.946 25.6327C113.801 25.6027 114.671 25.9027 115.346 26.5327L120.686 31.5427C120.446 31.7827 120.086 32.1427 119.711 32.5327C118.676 31.5127 117.341 30.9727 115.991 30.9577C114.626 30.9427 113.246 31.4527 112.196 32.4727C112.196 32.4727 112.151 32.5177 112.091 32.5777L111.401 31.9627L110.756 31.3627C110.096 30.7327 109.736 29.8927 109.721 29.0527C109.691 28.2127 109.991 27.3427 110.606 26.6827H110.621C110.621 26.6827 110.756 26.5627 111.011 26.3227C111.581 25.8877 112.256 25.6477 112.931 25.6327M129.161 8.20268C129.131 9.34268 129.536 10.4977 130.391 11.3827L135.401 16.6177C134.576 17.4277 132.311 19.6627 129.941 22.3027C129.476 22.8127 129.041 23.3677 128.576 23.9077C128.501 23.9977 128.426 24.0727 128.351 24.1627C128.231 24.2827 128.111 24.3877 127.976 24.5077C127.121 25.2877 126.266 26.0227 125.486 26.7577C123.566 28.5577 121.991 30.1177 121.331 30.7777L116.096 25.7677C115.211 24.9127 114.056 24.5077 112.916 24.5377C112.886 24.5377 112.871 24.5377 112.841 24.5377C114.386 22.9927 116.561 20.7577 118.841 18.3127C119.501 17.6077 120.131 16.8427 120.791 16.1077C120.896 15.9877 121.001 15.8677 121.106 15.7627C121.271 15.5977 121.451 15.4327 121.616 15.2827C122.801 14.1727 123.986 13.1227 125.066 12.0877C126.671 10.5577 128.081 9.17768 129.176 8.09768C129.176 8.12768 129.176 8.15768 129.176 8.20268M138.866 16.9477C138.866 18.6727 139.466 20.3827 140.576 21.8227C140.216 22.1827 138.671 23.7427 137.156 25.3177C135.926 26.5777 134.726 27.8377 134.111 28.4827L134.051 28.4227C133.751 28.7077 133.481 29.0077 133.211 29.3227C133.181 29.3527 133.151 29.3827 133.121 29.4127C133.046 29.5177 133.001 29.6227 132.926 29.7127C132.236 30.3727 131.126 31.4377 130.016 32.5177C128.441 34.0477 126.881 35.5927 126.521 35.9377C125.081 34.8127 123.371 34.2427 121.646 34.2277C121.061 34.2277 120.476 34.2727 119.906 34.3777C119.621 34.4377 119.321 34.5127 119.036 34.5877C120.356 33.2977 121.751 31.9027 121.751 31.9027L121.826 31.9777C121.826 31.9777 123.791 30.0277 126.176 27.4477C126.896 26.6677 127.646 25.7977 128.411 24.9427C128.516 24.8227 128.636 24.6877 128.756 24.5677C128.831 24.4927 128.921 24.4177 129.011 24.3427C129.536 23.8777 130.091 23.4427 130.601 22.9777C133.886 19.9777 136.601 17.1277 136.601 17.1277L136.526 17.0527C136.526 17.0527 137.936 15.6427 139.226 14.3227C139.136 14.6077 139.061 14.9077 139.001 15.1927C138.896 15.7627 138.836 16.3477 138.836 16.9327M145.541 17.1127C145.541 17.1127 147.476 19.0927 150.041 21.4927C150.821 22.2277 151.691 22.9627 152.531 23.7427C152.651 23.8627 152.786 23.9677 152.906 24.0877C152.981 24.1627 153.056 24.2527 153.131 24.3427C153.596 24.8827 154.031 25.4377 154.496 25.9477C157.481 29.2477 160.316 31.9777 160.316 31.9777L160.391 31.9027C160.391 31.9027 161.786 33.3127 163.106 34.5877C162.821 34.4977 162.536 34.4227 162.236 34.3777C161.666 34.2727 161.081 34.2127 160.496 34.2277C158.771 34.2427 157.061 34.8277 155.621 35.9377C155.261 35.5777 153.701 34.0327 152.126 32.5177C151.061 31.4827 150.011 30.4777 149.306 29.8027C149.216 29.6677 149.096 29.5477 149.006 29.4277H149.021C149.021 29.4277 148.931 29.3227 148.886 29.2777C148.631 28.9777 148.376 28.6927 148.091 28.4077L148.031 28.4677C147.416 27.8227 146.216 26.5627 144.986 25.3027C143.456 23.7277 141.911 22.1677 141.551 21.8077C142.676 20.3677 143.261 18.6577 143.276 16.9327C143.276 16.3477 143.231 15.7627 143.126 15.1927C143.066 14.8927 142.991 14.6077 142.901 14.3227C144.191 15.6427 145.586 17.0377 145.586 17.0377L145.511 17.1127H145.541ZM152.996 8.18768C152.996 8.18768 152.996 8.14268 152.996 8.12768C154.541 9.67268 156.761 11.8627 159.191 14.1427C159.896 14.8027 160.646 15.4327 161.381 16.1077C161.501 16.2127 161.621 16.3177 161.726 16.4227C161.891 16.5877 162.056 16.7677 162.206 16.9327C163.301 18.1177 164.366 19.3027 165.401 20.3977C166.931 22.0027 168.311 23.4277 169.376 24.5227C169.331 24.5227 169.301 24.5227 169.256 24.5227C168.116 24.4927 166.961 24.8977 166.076 25.7527L160.841 30.7627C160.031 29.9227 157.796 27.6577 155.186 25.2727C154.676 24.8077 154.121 24.3727 153.596 23.9077C153.506 23.8327 153.431 23.7577 153.341 23.6827C153.221 23.5627 153.116 23.4277 152.996 23.3077C152.231 22.4527 151.496 21.5827 150.761 20.8027C148.976 18.8677 147.416 17.2927 146.756 16.6327L151.766 11.3827C152.621 10.4977 153.026 9.34268 152.996 8.20268M152.996 64.5577C153.026 63.4177 152.621 62.2627 151.766 61.3777L146.756 56.1427C147.581 55.3327 149.846 53.1127 152.216 50.5177C152.681 50.0077 153.116 49.4527 153.581 48.9277C153.656 48.8377 153.731 48.7627 153.806 48.6727C153.926 48.5527 154.046 48.4477 154.181 48.3427C155.036 47.5777 155.891 46.8427 156.671 46.1227C158.591 44.3377 160.166 42.7927 160.826 42.1327L166.061 47.1427C166.946 47.9977 168.101 48.4027 169.241 48.3727C169.256 48.3727 169.286 48.3727 169.301 48.3727C167.756 49.9177 165.581 52.1227 163.316 54.5377C162.656 55.2427 162.026 55.9927 161.351 56.7277C161.246 56.8477 161.141 56.9677 161.036 57.0727C160.871 57.2377 160.691 57.4027 160.526 57.5527C159.341 58.6477 158.156 59.6977 157.076 60.7327C155.471 62.2477 154.061 63.6277 152.966 64.6927C152.966 64.6477 152.966 64.6177 152.966 64.5727M150.761 66.8527L150.791 66.8827C150.116 67.4977 149.261 67.7977 148.421 67.7677C147.566 67.7377 146.741 67.3927 146.111 66.7177L145.511 66.0727L144.731 65.1727C145.691 64.1227 146.171 62.7877 146.141 61.4677C146.126 60.2077 145.631 58.9627 144.731 57.9577C145.211 57.4777 145.646 57.0577 145.931 56.7727L150.941 62.1127C151.571 62.7877 151.871 63.6577 151.841 64.5127C151.811 65.2177 151.571 65.9077 151.106 66.4777C150.896 66.6877 150.761 66.8227 150.761 66.8227M131.321 66.8227C131.321 66.8227 131.186 66.6727 130.931 66.4177C130.496 65.8477 130.256 65.1877 130.241 64.5127C130.211 63.6577 130.511 62.7877 131.141 62.1127L136.151 56.7727C136.421 57.0427 136.826 57.4477 137.291 57.8977C136.361 58.9027 135.851 60.1777 135.836 61.4677C135.821 62.8177 136.316 64.1827 137.336 65.2327L136.601 66.0577L136.001 66.7027C135.371 67.3627 134.531 67.7227 133.691 67.7527C132.851 67.7827 131.996 67.4827 131.321 66.8677V66.8377V66.8227ZM131.336 5.89268V5.86268C131.981 5.24768 132.836 4.94768 133.691 4.97768C134.546 5.00768 135.371 5.35268 136.001 6.02768L136.616 6.67268C136.616 6.67268 137.081 7.16768 137.411 7.52768C136.436 8.57768 135.956 9.91268 135.986 11.2477C136.001 12.5077 136.496 13.7527 137.396 14.7577C136.901 15.2377 136.466 15.6727 136.181 15.9577L131.171 10.6177C130.541 9.94268 130.241 9.07268 130.271 8.21768C130.286 7.52768 130.541 6.83768 130.991 6.26768C131.216 6.04268 131.351 5.89268 131.351 5.89268M150.791 5.89268C150.791 5.89268 150.941 6.04268 151.211 6.32768C151.631 6.88268 151.856 7.54268 151.886 8.21768C151.916 9.07268 151.616 9.94268 150.986 10.6177L145.976 15.9577C145.706 15.6877 145.301 15.2827 144.836 14.8327C145.781 13.8277 146.291 12.5527 146.306 11.2477C146.321 9.89768 145.826 8.53268 144.821 7.48268L145.556 6.65768L146.156 6.01268C146.786 5.35268 147.626 4.99268 148.466 4.96268C149.306 4.93268 150.161 5.23268 150.836 5.84768L150.806 5.87768L150.791 5.89268ZM106.721 71.5027C106.871 71.3227 107.036 71.1127 107.186 70.8877C107.291 70.7377 107.351 70.5727 107.441 70.3927C107.456 70.3627 107.471 70.3477 107.486 70.3177C107.516 70.2877 107.561 70.2727 107.591 70.2427C107.846 70.0777 108.086 69.9427 108.311 69.7777C108.821 69.3877 109.211 69.0127 109.391 68.8477C111.251 68.8477 121.346 68.8477 132.956 68.8327C133.211 68.8627 133.451 68.8927 133.706 68.8927C133.871 68.8927 134.021 68.8627 134.186 68.8327C138.536 68.8327 143.066 68.8177 147.416 68.7877H147.581C147.851 68.8477 148.106 68.8777 148.376 68.8777C148.721 68.8777 149.051 68.8477 149.396 68.7727C160.871 68.7277 170.801 68.6377 172.661 68.6227L172.556 68.7277C172.556 68.7277 173.036 69.2377 173.741 69.7627C173.966 69.9277 174.221 70.0627 174.461 70.2277C174.491 70.2577 174.536 70.2727 174.566 70.3027C174.581 70.3177 174.596 70.3477 174.611 70.3777C174.716 70.5427 174.761 70.7077 174.866 70.8727C175.076 71.1877 175.316 71.4727 175.526 71.6977C171.986 71.6677 160.691 71.5927 148.151 71.5477C131.141 71.4877 111.896 71.4877 106.691 71.4877M177.206 19.9927C177.236 9.04268 177.236 0.732676 177.236 0.732676V0.192676H176.711L105.356 0.117676H104.756V0.717676L104.831 72.6127H105.371C105.371 72.6127 128.321 72.6127 148.181 72.5527C161.561 72.5077 173.531 72.4177 176.171 72.3877C176.246 72.4627 176.291 72.4927 176.291 72.4927L176.411 72.3727C176.621 72.3727 176.726 72.3727 176.726 72.3727H177.041V72.0577C177.041 72.0577 177.041 71.9377 177.041 71.7427L177.161 71.6227C177.161 71.6227 177.116 71.5777 177.041 71.4877C177.041 70.4827 177.041 68.1577 177.041 64.9027C177.041 54.5077 177.191 34.7977 177.236 19.9477M220.106 165.808C213.476 165.043 213.476 161.458 213.476 154.618V129.418C213.476 121.378 212.276 118.993 210.971 117.253C208.256 113.458 204.776 111.823 199.451 111.823C192.386 111.823 185.216 115.408 177.176 123.988C176.636 117.688 176.186 116.383 174.566 113.008L156.866 114.208V115.723C163.271 116.698 163.271 119.953 163.271 126.913V154.618C163.271 161.458 163.271 164.938 156.866 165.808V167.323H183.701V165.808C177.176 164.938 177.176 161.578 177.176 154.618V141.148C177.176 135.613 177.716 132.358 180.326 128.008C182.711 124.213 187.826 121.048 192.266 121.048C194.771 121.048 197.156 122.563 198.356 124.858C198.896 125.938 199.436 127.363 199.436 133.228V154.633C199.436 161.473 199.436 164.953 193.031 165.823V167.338H220.076V165.823L220.106 165.808ZM266.156 141.373C266.156 145.498 265.511 150.823 262.796 155.278C260.411 159.298 255.956 162.223 250.961 162.223C239.666 162.223 235.106 149.293 235.106 138.223C235.106 134.968 235.541 128.983 238.586 124.213C241.076 120.523 245.426 118.243 250.211 118.243C260.636 118.243 266.186 128.023 266.186 141.373M281.171 139.303C281.171 123.988 270.086 111.823 251.411 111.823C232.736 111.823 220.136 123.553 220.136 140.713C220.136 154.618 229.361 168.523 250.121 168.523C263.261 168.523 281.186 161.353 281.186 139.303" fill="#F0EFE5"/>
</g>
<defs>
<clipPath id="clip0_354_1771">
<rect width="280.245" height="205.29" fill="white" transform="translate(0.878906 0.117676)"/>
</clipPath>
</defs>
</svg>
