<svg width="130" height="32" viewBox="0 0 130 32" fill="none" xmlns="http://www.w3.org/2000/svg">
<path d="M0.744141 31.2761V9.44374H21.5045V11.4065H4.56697V19.6578H14.7166V21.6206H4.56697V31.2761H0.744141Z" fill="black"/>
<path d="M38.4424 25.5052H22.3451L19.1414 31.2611L17.0752 31.2501L29.2161 9.43828L30.8363 9.44647L34.2323 9.43828L46.3731 31.2501L41.6461 31.2624L38.4411 25.5052H38.4424ZM23.3966 23.6176H37.3909L30.3931 11.0473L23.3952 23.6176H23.3966Z" fill="black"/>
<path d="M59.5188 32C57.3026 32 55.6128 31.7719 54.2012 31.2829C50.0265 29.8378 47.6357 26.9367 47.6425 23.3225C47.6425 22.9346 47.6248 11.3423 47.6221 9.44374H51.1776V22.0468C51.0562 25.6322 53.0515 29.4704 57.7867 29.9443C58.4523 30.0113 59.1165 30.0454 59.7602 30.0454C63.1016 30.0454 65.8266 29.1412 67.4304 27.5008C68.6142 26.2906 69.1939 24.713 69.1543 22.8103C69.1502 22.5795 69.1079 11.3177 69.1011 9.4451H71.5901L71.5451 23.1723C71.511 27.2276 68.8284 30.294 64.1831 31.5834C62.7852 31.9713 61.2345 31.9863 59.8666 31.9986C59.7507 31.9986 59.6347 32 59.5188 32Z" fill="black"/>
<path d="M95.6734 31.2624L78.2053 13.5141V31.2624H75.7695V9.44374H79.04L95.9434 26.6184V9.44374H98.3792V31.2624H95.6734Z" fill="black"/>
<path d="M115.326 31.9221C107.376 31.9221 100.909 26.74 100.909 20.3708C100.909 14.0017 107.376 8.81953 115.326 8.81953C123.276 8.81953 129.743 14.0017 129.743 20.3708C129.743 26.74 123.276 31.9221 115.326 31.9221ZM115.314 10.1718C109.563 10.1718 104.885 14.7215 104.885 20.3148C104.885 25.9081 109.563 30.4579 115.314 30.4579C121.065 30.4579 125.745 25.9081 125.745 20.3148C125.745 14.7215 121.065 10.1718 115.314 10.1718Z" fill="black"/>
<path d="M32.0111 6.34044L31.501 5.4253L35.0647 0L36.1939 2.03517L32.0111 6.34044Z" fill="black"/>
</svg>
