<svg width="24" height="24" viewBox="0 0 24 24" fill="none" xmlns="http://www.w3.org/2000/svg">
<rect width="24" height="24" rx="6" fill="#312923"/>
<path d="M19.9987 9.85682C19.9874 8.93626 19.8375 8.04598 19.5708 7.21553C19.5748 7.21048 19.5781 7.20544 19.5821 7.20112L19.5609 7.18165C18.8272 4.92386 17.23 3.11446 15.2009 2.35178C14.9362 2.2523 14.6649 2.17084 14.3863 2.10812C13.9532 2.0108 10.4375 1.92357 9.61237 2.10812C9.34969 2.16651 9.08702 2.24437 8.83297 2.3388C6.75677 3.10221 5.16082 4.91882 4.43249 7.1867L4.41657 7.20112C4.41657 7.20112 4.42187 7.20833 4.42453 7.21193C4.16252 8.03589 4.01393 8.91752 4 9.83159V14.1367C4.05904 17.8896 6.4198 21.1342 9.6137 21.8522C9.9573 21.9286 10.3055 21.9755 10.6485 21.9921C10.6485 21.9921 13.0477 22 13.0484 22C13.4941 22 13.9445 21.9503 14.387 21.8522C17.5928 21.1313 19.9536 17.8723 20 14.097V9.85755L19.9987 9.85682ZM18.5122 7.0382C18.3954 7.19967 18.28 7.36187 18.1699 7.52262C15.8755 10.8423 14.1734 14.7509 13.2162 18.8793V9.81862C13.2056 8.93411 13.1094 8.05535 12.9303 7.20688C12.8189 6.67704 12.6736 6.15512 12.4978 5.64691C12.8441 4.74148 13.2985 3.88797 13.8464 3.12384C13.8669 3.095 13.8875 3.06761 13.908 3.0395C14.0049 3.05535 14.1017 3.07409 14.1973 3.095C16.1348 3.53113 17.7162 5.04497 18.5122 7.03748V7.0382ZM11.7098 9.78618C11.7224 8.98817 11.8106 8.19664 11.9725 7.43179C11.9811 7.39214 11.9904 7.3525 11.999 7.31358C12.0076 7.35323 12.0169 7.39287 12.0255 7.43251C12.1894 8.21106 12.2776 9.01917 12.2875 9.82583V20.9908H11.7098V9.7869V9.78618ZM11.9983 4.41637C11.7622 3.91175 11.4942 3.42733 11.197 2.96813H12.7996C12.5025 3.42733 12.2345 3.91175 11.9983 4.41637ZM9.13014 3.29468C9.34837 3.21395 9.57324 3.14691 9.7981 3.09716C9.89428 3.07554 9.99113 3.05679 10.088 3.04093C10.1092 3.07049 10.1298 3.09933 10.1503 3.12744C10.6982 3.89013 11.1526 4.74293 11.4989 5.64835C11.3231 6.15657 11.1785 6.67776 11.067 7.2076C10.8913 8.03949 10.7951 8.90166 10.7811 9.77825V18.8808C9.82397 14.7523 8.12189 10.8437 5.82812 7.52551C5.71535 7.36115 5.59861 7.19679 5.48054 7.03315C6.17503 5.28359 7.4778 3.90238 9.13014 3.29468ZM4.92666 14.128V9.84024C4.93529 9.27291 5.00294 8.71856 5.123 8.18656C9.20376 14.1208 10.1689 20.4746 10.2511 20.9439C10.0999 20.9237 9.94867 20.8971 9.79876 20.8639C7.0274 20.2411 4.97774 17.4044 4.926 14.128H4.92666ZM14.1979 20.8639C14.048 20.8971 13.8968 20.9223 13.7449 20.9425C13.7979 20.6419 14.7617 14.1684 18.8697 8.1916C18.9924 8.7301 19.0621 9.29166 19.0694 9.86764V14.0905C19.0289 17.39 16.9799 20.2389 14.1979 20.8639Z" fill="#EFECE9"/>
</svg>
